<?xml version="1.0" encoding="utf-8"?>
<!-- Generator: Adobe Illustrator 17.1.0, SVG Export Plug-In . SVG Version: 6.00 Build 0)  -->
<!DOCTYPE svg PUBLIC "-//W3C//DTD SVG 1.1//EN" "http://www.w3.org/Graphics/SVG/1.1/DTD/svg11.dtd">
<svg version="1.1" id="buy-hand" xmlns="http://www.w3.org/2000/svg" xmlns:xlink="http://www.w3.org/1999/xlink" x="0px" y="0px"
	 viewBox="0 0 1010 1010" enable-background="new 0 0 1010 1010" xml:space="preserve">
<g id="buy-hand-buy-hand">
	<circle id="buy-hand-label" fill="#FFB933" cx="505" cy="505" r="505"/>
	<g id="buy-hand-buy-hand_1_">
		<g>
			<path fill="#FC6E51" d="M420.6001,644.0029H257.5498c-11.1055,0-20.1997-9.0938-20.1997-20.2003V320.8032
				c0-11.1059,9.0942-20.1899,20.1997-20.1899H752.46c11.0966,0,20.1904,9.084,20.1904,20.1899v302.9995
				c0,11.1065-9.0938,20.2003-20.1904,20.2003H649.3398"/>
			<path fill="#454545" d="M752.46,654.1035H649.3398c-5.5781,0-10.1005-4.5176-10.1005-10.1006
				c0-5.583,4.5224-10.0996,10.1005-10.0996H752.46c5.5634,0,10.0898-4.5273,10.0898-10.1006V320.8032
				c0-5.563-4.5264-10.0903-10.0898-10.0903H257.5498c-5.5674,0-10.0996,4.5273-10.0996,10.0903v302.9995
				c0,5.5733,4.5322,10.1006,10.0996,10.1006h163.0503c5.5776,0,10.1001,4.5166,10.1001,10.0996
				c0,5.5829-4.5225,10.1006-10.1001,10.1006H257.5498c-16.708,0-30.2998-13.5918-30.2998-30.3008V320.8032
				c0-16.6987,13.5918-30.2905,30.2998-30.2905H752.46c16.7031,0,30.29,13.5918,30.29,30.2905v302.9995
				C782.75,640.5117,769.1631,654.1035,752.46,654.1035L752.46,654.1035z"/>
		</g>
		<g>
			<path fill="#454545" d="M378.627,395.2808c27.8144,0,45.0849,12.6645,45.0849,33.5747c0,15.1504-9.02,26.4726-23.6025,29.9248
				c18.0395,3.0771,28.7807,15.9297,28.7807,33.9697c0,23.0205-18.6118,36.8291-48.9218,36.8291h-59.6729V395.2808H378.627z
				 M342.9365,450.9102h34.5362c14.3857,0,23.021-6.7071,23.021-18.0303c0-11.3135-8.6353-17.458-23.021-17.458h-34.5362V450.9102z
				 M342.9365,509.4385h34.5362c17.6503,0,28.2041-6.9043,28.2041-19.5694c0-11.8945-10.5538-18.9961-28.2041-18.9961h-34.5362
				V509.4385z"/>
			<path fill="#454545" d="M569.9399,473.9404c0,35.1133-22.0639,56.6055-58.3315,56.6055
				c-36.2622,0-58.5186-21.4922-58.5186-56.6055v-78.6596h22.6407v78.6596c0,22.6358,14.0058,36.2676,36.0703,36.2676
				c21.8721,0,35.4931-13.4346,35.4931-36.2676v-78.6596h22.646V473.9404z"/>
			<path fill="#454545" d="M657.457,529.5791h-22.4492v-43.9307l-50.0859-90.3676h22.834l38.3779,65.4233l37.6084-65.4233h23.0215
				l-49.3067,89.5981V529.5791z"/>
		</g>
		<g>
			<path fill="#FFFFFF" d="M529.6582,578.4512c-8.3643-8.3535-21.2061-9.2813-29.5303-0.9658
				c-8.3051,8.3144-7.6347,20.9589,0.7295,29.3134l-10.1196-10.1396c-8.3638-8.3643-21.2061-9.2617-29.5308-0.9365
				c-8.3047,8.2851-7.6338,20.9296,0.75,29.2939l-63.0859-63.0762c-8.3643-8.3642-20.9893-9.0244-29.2842-0.7296
				c-8.334,8.334-7.4072,21.1758,0.957,29.5401l99.1065,99.1162l-47.3047-1.6367c-11.6978-0.1289-20.7519,9.705-20.6143,21.5995
				c0.1182,11.8955,8.0289,18.0703,19.5689,20.1416c39.019,7.0224,138.0859,61.1523,168.3267,30.9111
				c20.2001-20.1992,43.8418-43.832,43.8418-43.832s33.2988-58.627-7.7129-99.6192l-56.8615-56.8719
				c-8.3642-8.3741-21.206-9.2813-29.521-0.9659c-8.3149,8.3145-7.6142,20.9395,0.7398,29.3125L529.6582,578.4512z"/>
			<path fill="#454545" d="M561.8027,780.0967c-28.0908,0-64.54-13.4737-96.7046-25.3682
				c-17.9311-6.6289-34.8715-12.8916-45.5883-14.8144c-17.5567-3.1563-27.7207-14.085-27.878-29.9844
				c-0.0986-8.5518,3.2251-16.8867,9.1182-22.8535c5.7012-5.7696,13.291-8.9463,21.3691-8.9463l22.2764,0.7597l-80.9927-80.997
				c-12.5561-12.5567-12.9751-31.8096-0.9565-43.8223c11.7026-11.7187,31.5078-11.3135,43.5659,0.7295l42.1113,42.0967
				c1.4595-3.0283,3.4619-5.8399,5.9527-8.3252c8.2802-8.2754,20.9741-10.7901,31.75-6.835
				c1.4345-4.1523,3.8169-8.0488,7.1552-11.3926c8.3887-8.3828,21.2657-10.8496,32.1446-6.6767
				c1.4453-4.084,3.8125-7.9209,7.1064-11.2149c11.6782-11.6884,31.6909-11.1552,43.8076,0.9668l56.8575,56.8721
				c36.7451,36.7207,22.1876,89.1533,9.3554,111.75c-0.4492,0.7891-1.0009,1.5098-1.6425,2.1504l-43.8428,43.832
				C588.7588,776.0332,576.9971,780.0967,561.8027,780.0967L561.8027,780.0967z M421.9956,698.3203
				c-3.2549,0.0098-5.5483,1.6074-6.8794,2.959c-2.126,2.1504-3.3242,5.2178-3.2847,8.4336
				c0.0298,2.9189,0.0835,8.3144,11.2539,10.3164c12.4722,2.249,29.4078,8.5019,49.0157,15.7519
				c29.062,10.7403,65.226,24.1153,89.7016,24.1153c9.6416,0,16.5996-2.0713,20.6836-6.1543l42.7969-42.7871
				c4.127-7.9102,25.8857-53.8438-6.668-86.3828l-56.8618-56.8711c-2.4165-2.4171-5.5234-3.7979-8.5269-3.7979
				c-1.7657,0-4.3643,0.4834-6.712,2.8311c-4.2016,4.2011-3.8911,10.3857,0.7496,15.041
				c3.9355,3.9453,3.9305,10.3369-0.0147,14.2822c-3.9355,3.9258-10.3315,3.9356-14.2768-0.0097l-10.4551-10.4551
				c-2.417-2.4073-5.5283-3.7979-8.5371-3.7979c-1.7704,0-4.3692,0.4942-6.7168,2.8408
				c-4.1817,4.1827-3.9058,10.3467,0.6855,14.9727h0.0049c3.9404,3.9453,3.96,10.3662,0.0147,14.3115c0,0,0,0-0.0049,0l0,0
				c-0.0049,0.0098-0.0098,0.0098-0.0196,0.0196l0,0c-0.0048,0.0097-0.0097,0.0097-0.0146,0.0195c0,0-0.0049,0-0.0098,0.0107l0,0
				c-0.1186,0.1084-0.2373,0.2266-0.3554,0.335c-0.0049,0.0098-0.0098,0.0098-0.0245,0.0195c-0.0097,0-0.0146,0.0195-0.0249,0.0195
				c-0.0097,0.0098-0.0146,0.0303-0.0249,0.0206c-1.3213,1.163-2.8701,1.9228-4.4922,2.288
				c-3.2158,0.7198-6.7519-0.1777-9.2763-2.7031l-10.1348-10.1582c-2.3965-2.3974-5.499-3.7783-8.5019-3.7783
				c-1.7705,0-4.3794,0.4932-6.7369,2.8506c-2.0073,2.0019-3.018,4.4687-2.9292,7.1211c0.0889,2.8018,1.3858,5.5927,3.6495,7.8613
				c0.0048,0,0.0097,0.0098,0.0097,0.0098c0.0049,0,0.0098,0.0096,0.0098,0.0096c0.0146,0.0098,0.0195,0.0197,0.0244,0.0197
				c0.0049,0.0097,0.0098,0.0097,0.0151,0.0195c0,0-0.0102,0.0205,0.0196,0.0205c0.0053,0,0.0102,0.0098,0.0102,0.0098
				s-0.0102,0,0.0244,0.0195c0.0049,0.0098,0.0098,0.0098,0.0147,0.0195c0,0-0.0293,0.0401,0.0195,0.0204
				c0.0298,0.0293,0.02,0.0197,0.0249,0.0293c0,0-0.0298-0.0594,0.02,0.0197c0.0098,0,0.0147,0.0195,0.0245,0.0195
				c0,0.0098,0.0048,0.0098,0.0048,0.0098c0.0049,0.0096,0-0.0197,0.0245,0.0293c0.0048,0,0.0102,0.0107,0.0151,0.0107
				l0.0049,0.0098c0.0049,0.0096,0-0.0205,0.0249,0.0293c0.0049,0,0.0097,0,0.0146,0.0097l0.0049,0.0098
				c0.0195,0.0107,0.0147,0.0205,0.0244,0.0205c0.0049,0.0098,0.0449-0.04,0.02,0.0293c0.0098,0,0.0098,0.0195,0.0249,0.0195
				c-0.0053,0.0098-0.02-0.0195,0.0196,0.0294c0.0049,0,0.0097,0.0098,0.0097,0.0098c0.0049,0,0.0098,0.0098,0.0098,0.0098
				c0.0049,0.0097,0.0098,0.0097,0.0147,0.0205c0,0,0.0048,0,0.0097,0.0096c0,0,0.0103,0.0197,0.02,0.0197
				c0.0049,0.0097,0.0098,0.0498,0.0201,0.0195c0.0048,0.0098,0.0097,0.0098,0.0146,0.0205l0.0049,0.0098
				c0.0195,0.0096,0.0244,0.0293,0.0244,0.0195c0.0049,0.0098,0,0.0195,0.0195,0.0293c0.0054,0,0.0103,0.0098,0.0103,0.0098
				c0.0049,0.0096,0.0098,0.0096,0.0098,0.0096c0.0048,0.0098,0.0102,0.0098,0.0151,0.0197l0.0049,0.0097
				c0.0097,0,0.0097,0.0204,0.0244,0.0204c0,0.0098-0.0147,0.0197,0.0195,0.0294c0.02,0.0098,0.0147,0.0196,0.02,0.0196
				c0.0049,0.0097,0.0049,0.0205,0.0196,0.0302c0.0151,0,0.0151,0.0197,0.02,0.0197c0.0049,0.0096,0.0098,0.0096,0.0146,0.0195
				l0.0049,0.0098c0.0049,0,0.0098,0.0097,0.0147,0.0195h0.0049c0.0048,0.0098,0.0097,0.0195,0.0146,0.0195l0.0054,0.0098
				c0.0049,0,0.0097,0.0098,0.0146,0.0205h0.0049c0.0054,0.0098,0.0103,0.0195,0.0151,0.0195l0.0049,0.0098
				c0.0049,0.0098,0.0098,0.0098,0.0147,0.0195c0,0-0.0049,0.0596,0.0195,0.0204c0,0.0098,0.0049,0.0098,0.0049,0.0098
				c0.0049,0.0098,0.0098,0.0098,0.0146,0.0195c0,0,0,0.049,0.0201,0.0197c0,0.0096,0.0048,0.0096,0.0048,0.0096
				c0.0054,0.0098,0.0103,0.0098,0.0152,0.0197c0,0-0.0401-0.0391,0.0195,0.0293h0.0049c0.0049,0.0097,0.0098,0.0205,0.0146,0.0205
				l0.0049,0.0097c0.0049,0,0.0098,0.0098,0.0147,0.0196c0,0,0.0102,0.0195,0.02,0.0195c0.0102,0.04,0.0151,0.0098,0.02,0.0303
				c0,0-0.0449-0.0303,0.0147,0.0293c0.0048,0,0.0048,0,0.0048,0c0.0049,0.0097,0.0098,0.0097,0.0147,0.0195l0.0049,0.0098
				c0.0049,0,0.0097,0.0097,0.0146,0.0195h0.0049c0.0103,0.0195,0.0103,0.0293,0.02,0.0293
				c0.0049,0.0107,0.0103,0.0107,0.0152,0.0205c0,0-0.045-0.0693,0.0146,0.0293c0.0049,0,0.0049,0,0.0049,0
				c0.0049,0.0098,0.0098,0.0195,0.0146,0.0195l0.0049,0.0108c0.0049,0,0.0098,0.0096,0.0147,0.0195l0,0
				c0.0048,0.0098,0.0097,0.0195,0.02,0.0293l0,0c0.0049,0.0098,0.0098,0.0195,0.0146,0.0195c0,0-0.0395-0.0587,0.0201,0.0293l0,0
				c0.0048,0.0098,0.0146,0.0196,0.0195,0.0303l0,0c0.0049,0.0098,0.0098,0.0098,0.0146,0.0195l0,0
				c0.0098,0.0098,0.0147,0.0196,0.0196,0.0293l0,0c0.0053,0.0098,0.02,0.0303,0.02,0.0303
				c0.0049,0.0098,0.0102,0.0098,0.0151,0.0195l0,0c0.0049,0.0098,0.0098,0.0196,0.0196,0.0293l0,0
				c1.5683,2.377,2.0317,5.2676,1.3906,7.9395l0,0c0,0.0205-0.0049,0.04-0.0098,0.0596l0,0
				c-0.0049,0.0097-0.0049,0.0195-0.0098,0.0302c0,0,0,0,0,0.0098c0,0-0.0048,0.0098-0.0048,0.0195c0,0,0.0537-0.0293-0.0098,0.0293
				c0,0,0,0,0,0.0098c0,0-0.0054,0.0097-0.0054,0.0195c0,0,0,0-0.0049,0.0098c0,0,0,0.0097-0.0048,0.0195c0,0,0,0,0,0.0108
				c0,0-0.0049,0.0097-0.0049,0.0195c0,0-0.0049,0-0.0049,0.0098c0,0,0,0.0097-0.0054,0.0195c0,0,0-0.0391-0.0049,0.0303
				c-0.0048,0-0.0048,0-0.0048,0.0097l-0.0049,0.0098c0,0.0098,0,0.0098,0,0.0098c-0.0049,0.0097-0.0049,0.0195-0.0098,0.0292l0,0
				c0,0.0098-0.0049,0.0196-0.0049,0.0196c0,0.0097-0.0049,0.0097-0.0049,0.0097c0,0.0098-0.0048,0.0196-0.0048,0.0196
				c0,0.0107,0,0.0107,0,0.0107c-0.0049,0.0098-0.0049,0.0196-0.0049,0.0196c-0.0049,0.0097-0.0049,0.0097-0.0049,0.0097
				c0,0.0098-0.0049,0.0098-0.0049,0.0195l-0.0049,0.0098c0,0.0108-0.0049,0.0108-0.0049,0.0205
				c0.0049,0-0.0048,0.0098-0.0048,0.0293c-0.0054,0-0.0054,0.0098-0.0054,0.0098c0,0.0195-0.0195,0.0195-0.0098,0.0293
				c0,0.0097-0.0049,0.0097-0.0049,0.0195l-0.0048,0.0098c0,0.0097,0,0.0097-0.0054,0.0205c-0.0049,0-0.0049,0.0195-0.0049,0.0195
				c-0.0098,0.0293-0.0098,0.0293-0.0098,0.0293c-0.0048,0.0098-0.0048,0.0205-0.0097,0.0205v0.0098
				c0.0049,0.0098-0.0147,0.0488-0.0098,0.0293c0,0.0097-0.0049,0.0097-0.0049,0.0195l-0.0049,0.0098
				c0,0.0097-0.0048,0.0097-0.0048,0.0195c0,0,0,0.0098-0.0049,0.0098c0,0-0.0049,0.0097-0.0049,0.0195
				c0,0,0.0195-0.0586-0.0098,0.0303c0.0049,0,0.0293-0.0401-0.0102,0.0293l0,0c-0.0049,0.0097-0.0049,0.0205-0.0098,0.0303l0,0
				c-0.0049,0.0195-0.0151,0.039-0.02,0.0585l0,0c-0.4092,1.1836-1.0449,2.3086-1.9082,3.3047l0,0
				c-0.0147,0.0098-0.0244,0.0294-0.0244,0.0294c-0.0054,0-0.0103,0.0098-0.0152,0.0196h-0.0048
				c-0.0103,0.0195-0.0201,0.0097-0.0201,0.0293c-0.0048,0-0.0146,0.0097-0.0195,0.0195c0.0098,0.0107-0.0098,0.0107-0.0195,0.0205
				c0,0,0.0737-0.0303-0.0249,0.0293l0,0c-0.0098,0.0098-0.0347,0.0195-0.0249,0.0195c-0.0049,0.0108-0.0147,0.0303-0.0196,0.0303
				c-0.0097,0.0098-0.0146,0.0098-0.0195,0.0195h-0.0049c-0.0049,0.0098-0.0097,0.0098-0.0146,0.0197
				c0,0,0.0888,0.039-0.0249,0.0195c0.0049,0.0293-0.0098,0.0195-0.02,0.0293h-0.0049c-0.0098,0.0205-0.0147,0.0303-0.0244,0.0303
				c-0.0147,0-0.0098,0.0195-0.0196,0.0195c-0.0097,0.0098,0-0.0293-0.0249,0.0293c-0.0097,0-0.02,0.0205-0.02,0.0205
				c-0.0049,0-0.0098,0.0293-0.0244,0.0195c-0.0049,0.0098-0.0098,0.0098-0.0147,0.0196c0,0-0.0048,0-0.0097,0.0097
				c0,0-0.0098,0.0196-0.0196,0.0196c-0.0053,0.0195-0.02,0.0097-0.0249,0.0293c-0.0053,0-0.0249-0.0293-0.02,0.0205
				c-0.0049,0-0.0097,0.0097-0.0146,0.0097c0,0-0.0049,0.0098-0.0098,0.0098l0,0l0,0c-0.0049,0.0293-0.0098,0.0195-0.0244,0.0293
				c0.0049,0-0.0151,0.0098-0.0249,0.0205c0,0,0.0395,0.0293-0.02,0.0195c-0.0049,0-0.0147,0.0197-0.0244,0.0294
				c-0.0098,0-0.0147,0.0098-0.0245,0.0196c0,0,0,0.0195-0.0249,0.0195c0,0-0.0097,0.0195-0.02,0.0195
				c-0.0049,0.0098-0.0049,0.0098-0.0049,0.0098c-0.0097,0.0107-0.0146,0.0107-0.0195,0.0205h-0.0049
				c-0.0049,0.0098-0.0146,0.0098-0.0195,0.0195c0.0098,0.0098-0.0098,0.0196-0.0249,0.0196c0,0,0.0151,0-0.0249,0.0302l0,0
				c-0.0049,0-0.0147,0.0098-0.0195,0.0196c0.0097,0.0097-0.0147,0.0097-0.0245,0.0195c0.0049,0-0.0146,0.0195-0.0249,0.0195l0,0
				c-1.9873,1.8145-4.478,2.5547-7.0327,2.6533c-0.0097,0-0.0195,0-0.0293,0c-0.0097,0-0.0195,0-0.0293,0c-0.0102,0-0.02,0-0.0298,0
				c-0.02,0-0.0297,0-0.0297,0c-0.0147,0-0.0147-0.0097-0.0342-0.0097c-0.0098,0-0.02,0-0.0298,0c-0.0151,0-0.0347,0-0.0542,0
				h-0.0049c-2.2588-0.0987-4.4883-0.9571-6.2783-2.5742l0,0c-0.0098-0.0098-0.0147-0.0098-0.0244-0.0205l0,0
				c-0.0098-0.0098-0.0147-0.0196-0.0244-0.0196l0,0c-0.0049-0.0097-0.0152-0.0195-0.0201-0.0195l-0.0048-0.0098
				c-0.0049,0-0.0201-0.0195-0.0249-0.0195c-0.0049,0-0.0098-0.0098-0.0196-0.0195c0.0049,0.0097-0.0146,0-0.0195-0.0196
				c-0.0049,0.0098-0.0098,0-0.0249-0.0205c0,0-0.0049,0-0.0098-0.0097l-0.02-0.0196c-0.0049,0.0098-0.0146-0.0097-0.0244-0.0195
				c-0.0049-0.0098-0.0098-0.0098-0.0146-0.0205c0,0-0.0196,0.0205-0.0196-0.0195c-0.0054,0-0.0102-0.0098-0.0151-0.0098
				c0,0-0.0152-0.0195-0.0249-0.0195c0-0.0098-0.0049-0.0098-0.0049-0.0098c-0.0049-0.0195-0.0049-0.0098-0.0244-0.0195
				c-0.0049-0.0197,0,0.0097-0.0244-0.0293c-0.0103,0-0.0201-0.0205-0.0201-0.0205c-0.0048,0-0.0097-0.0098-0.0097-0.0098
				l-63.0952-63.085c-4.419-4.4286-10.8745-4.8535-15.0025-0.7303c-4.6948,4.6953-3.0722,11.2246,0.9566,15.2588l99.1064,99.1162
				c2.9346,2.9296,3.7778,7.3574,2.1206,11.165c-1.6518,3.7979-5.247,6.2627-9.6118,6.0654L421.9956,698.3203L421.9956,698.3203z"/>
		</g>
	</g>
</g>
</svg>
